# xmcd
#
# Track frame offsets: 
#        150
#        9193
#        28182
#        43918
#        59990
#        68901
#        91690
#        107225
#
# Disc length: 1621 seconds
#
# Revision: 4
# Processed by: cddbd v1.5.2PL0 Copyright (c) Steve Scherf et al.
# Submitted via: ExactAudioCopyFreeDBPlugin 1.0
#
DISCID=6a065308
DTITLE=Al Jarreau - 1987 - Al Jarreau sings Bill Withers
DYEAR=1987
DGENRE=Jazz
TTITLE0=Ain't No Sunshine
TTITLE1=Lean On Me
TTITLE2=Use Me
TTITLE3=Kissing My Love
TTITLE4=Grandma's Hands
TTITLE5=You
TTITLE6=Lonely Town, Loneley Street
TTITLE7=The Same Love That Made Me Laugh
EXTD=YEAR: 1987 ID3G: 8
EXTT0=
EXTT1=
EXTT2=
EXTT3=
EXTT4=
EXTT5=
EXTT6=
EXTT7=
PLAYORDER=
